# xmcd
# 
# Track frame offsets:
#     150
#     18067
#     47512
#     69017
#     95012
#     117225
#     139625
#     167135
#     194155
#     220052
#     250622
#     290110
# 
# Disc length: 4223
# 
# Revision: 4
# Processed by: cddbd v1.5.2PL0 Copyright (c) Steve Scherf et al.
# Submitted via: BonkEnc v1.0
# 
DISCID=a8107d0c
DTITLE=陳昇 - 新寶島康樂隊第五輯
DYEAR=2000
DGENRE=Country
TTITLE0=等無限時批
TTITLE1=豬血湯
TTITLE2=思慕阿里山
TTITLE3=來去台北做歌星
TTITLE4=酒醉掉進水溝裡
TTITLE5=官人你位何如此悲傷
TTITLE6=愛情霹靂火
TTITLE7=阿春伊阿嬤
TTITLE8=De Do So
TTITLE9=淡水河要報仇
TTITLE10=Mai Nu Ya Gin¬盼望
TTITLE11=Data Track
EXTD=
EXTT0=
EXTT1=
EXTT2=
EXTT3=
EXTT4=
EXTT5=
EXTT6=
EXTT7=
EXTT8=
EXTT9=
EXTT10=
EXTT11=
PLAYORDER=
